<svg width="112" height="17" viewBox="0 0 112 17" fill="none" xmlns="http://www.w3.org/2000/svg">
<path fill-rule="evenodd" clip-rule="evenodd" d="M12.6477 2.95332L15.8321 8.49928L12.6477 14.0452L9.71647 8.94081C9.55957 8.66816 9.2693 8.49928 8.9555 8.49928H3.0931L6.27748 2.95332H12.6477ZM0.117676 8.94081L4.40964 16.4153C4.56654 16.6887 4.85681 16.8576 5.17061 16.8576H13.7545C14.0683 16.8576 14.3586 16.6887 14.5155 16.4153L18.8075 8.94152C18.9644 8.66816 18.9644 8.33183 18.8075 8.05846L14.5155 0.58394C14.3586 0.310578 14.0683 0.14241 13.7545 0.14241H5.17061C4.85681 0.14241 4.56725 0.310578 4.40964 0.58394L0.117676 8.05703C-0.0392253 8.3304 -0.0392253 8.66816 0.117676 8.94081Z" fill="#429EF5"/>
<path fill-rule="evenodd" clip-rule="evenodd" d="M33.9036 5.34845C33.9036 3.77412 32.8823 2.72217 30.9353 2.72217H28.4891V7.97473H30.9353C32.8823 7.97473 33.9036 6.92494 33.9036 5.34845ZM25.6378 0H31.2912C34.5919 0 36.8006 2.29209 36.8006 5.34845C36.8006 8.4041 34.5919 10.6969 31.2912 10.6969H28.4884V16.7145H25.6385L25.6378 0ZM46.4728 5.46868L45.4758 8.04701C45.4758 8.04701 44.9538 7.78438 44.1222 7.78438C42.3891 7.78438 41.6061 9.31292 41.6061 9.31292V16.7137H38.7554V5.39711H41.4627V7.04373C41.4627 7.04373 42.4362 5.10944 44.5258 5.10944C45.5471 5.10944 46.4728 5.46868 46.4728 5.46868ZM55.9319 11.0547C55.9319 9.28931 54.7444 7.78438 52.8202 7.78438C50.896 7.78438 49.7086 9.28931 49.7086 11.0547C49.7086 12.8223 50.896 14.3265 52.8202 14.3265C54.7444 14.3265 55.9319 12.8215 55.9319 11.0547ZM58.8288 11.0547C58.8288 14.3737 56.1693 17 52.8202 17C49.4711 17 46.8116 14.3737 46.8116 11.0547C46.8116 7.71282 49.4711 5.10944 52.8202 5.10944C56.1693 5.10944 58.8288 7.71282 58.8288 11.0547Z" fill="#19305C"/>
<path fill-rule="evenodd" clip-rule="evenodd" d="M61.2908 1.40618H64.1414V5.39713H67.5369V7.97547H64.1422V12.5368C64.1422 13.9207 64.8553 14.3272 65.6156 14.3272C66.2561 14.3272 66.8031 13.9207 66.8031 13.9207L67.8472 16.2615C67.8472 16.2615 66.7774 17 65.1399 17C62.9547 17 61.2916 15.402 61.2916 12.9897L61.2908 1.40618Z" fill="#19305C"/>
<path fill-rule="evenodd" clip-rule="evenodd" d="M78.2291 11.0547C78.2291 9.28931 77.0417 7.78439 75.1175 7.78439C73.1933 7.78439 72.0066 9.28931 72.0066 11.0547C72.0066 12.8223 73.1933 14.3265 75.1175 14.3265C77.0417 14.3265 78.2291 12.8216 78.2291 11.0547ZM81.1261 11.0547C81.1261 14.3737 78.4673 17 75.1175 17C71.7684 17 69.1096 14.3737 69.1096 11.0547C69.1096 7.71283 71.7684 5.10945 75.1175 5.10945C78.4673 5.10945 81.1261 7.71283 81.1261 11.0547ZM86.4072 9.86108L90.4432 5.39712H94.1254L89.1844 10.7456L94.4577 16.7145H90.7042L86.4072 11.7718V16.7145H83.5566V1.40546H86.4072V9.86108ZM103.821 11.0547C103.821 9.28931 102.634 7.78439 100.71 7.78439C98.786 7.78439 97.5986 9.28931 97.5986 11.0547C97.5986 12.8223 98.786 14.3265 100.71 14.3265C102.634 14.3265 103.821 12.8216 103.821 11.0547ZM106.718 11.0547C106.718 14.3737 104.059 17 100.71 17C97.3604 17 94.7016 14.3737 94.7016 11.0547C94.7016 7.71283 97.3604 5.10945 100.71 5.10945C104.059 5.10945 106.718 7.71283 106.718 11.0547ZM109.149 16.7137H112V1.40546H109.149V16.7137Z" fill="#19305C"/>
</svg>
